:version 1.10
:name ASF
:units
  mass 1
  length 1
  angle deg
:documentation
  ASF file generated by Kaydara
:root
  axis xyz
  order  tx ty tz rx ry rz
  position 0 0 0
  orientation 0 0 0
:bonedata
  begin
    id 1
    name RightUpLegDummy
    direction -0.65628 -0.754516 0.00165102
    length 4.76918
    axis 0 0 0 xyz
  end
  begin
    id 2
    name RightUpLeg
    direction -0.145584 -0.923362 0.355256
    length 17.9961
    axis -24.7611 -13.1006 1.78531 xyz
    dof rx ry rz
  end
  begin
    id 3
    name RightLeg
    direction 0.263379 0.172355 -0.949171
    length 13.3386
    axis 89.6202 -21.1929 12.3855 xyz
    dof rx ry rz
  end
  begin
    id 4
    name RightFoot
    direction 0.224283 -0.968777 -0.105675
    length 5.86697
    axis 56.995 -39.6905 17.3365 xyz
    dof rx ry rz
  end
  begin
    id 5
    name RightToes
    direction -0.0806345 -0.9037 0.420506
    length 4.75197
    axis 146.825 -39.7828 17.6019 xyz
    dof rx ry rz
  end
  begin
    id 6
    name SpineDummy
    direction -3.39852e-014 1 9.33296e-014
    length 8.13779
    axis 0 0 0 xyz
  end
  begin
    id 7
    name Spine
    direction -0.156609 0.733703 0.661176
    length 7.14978
    axis 41.2365 5.68757 17.0844 xyz
    dof rx ry rz
  end
  begin
    id 8
    name Spine1
    direction 0 0 0
    length 0
    axis 42.8809 47.8308 -3.36039 xyz
    dof rx ry rz
  end
  begin
    id 9
    name HEadDummy
    direction 0.546431 0.701947 0.456819
    length 3.55512
    axis 42.8809 47.8308 -3.36039 xyz
  end
  begin
    id 10
    name HEad
    direction 0.23444 0.828559 0.508457
    length 7.35827
    axis 51.1864 49.2662 27.4903 xyz
    dof rx ry rz
  end
  begin
    id 11
    name LeftShoulder1Dummy
    direction 0.431183 0.475873 -0.766568
    length 2.49352
    axis 42.8809 47.8308 -3.36039 xyz
  end
  begin
    id 12
    name LeftShoulder1
    direction 0.268187 -0.383402 -0.883786
    length 4.48604
    axis -119.517 0.106469 35.1736 xyz
    dof rx ry rz
  end
  begin
    id 13
    name LeftArm
    direction 0.380567 -0.703221 -0.600541
    length 10.1142
    axis -5.41825 36.2925 7.8293 xyz
    dof rx ry rz
  end
  begin
    id 14
    name LeftForeArm
    direction 0.541071 -0.732356 -0.413396
    length 9.39839
    axis 4.65387 33.7604 7.81644 xyz
    dof rx ry rz
  end
  begin
    id 15
    name LeftHand
    direction 0.847511 -0.389379 -0.360707
    length 3.66142
    axis 7.65593 21.1436 -24.6758 xyz
    dof rx ry rz
  end
  begin
    id 16
    name RightShoulderDummy
    direction -0.692546 0.541855 0.476208
    length 2.49352
    axis 42.8809 47.8308 -3.36039 xyz
  end
  begin
    id 17
    name RightShoulder
    direction -0.870808 -0.316653 0.376065
    length 4.48602
    axis 141.571 51.133 -100.254 xyz
    dof rx ry rz
  end
  begin
    id 18
    name RightArm
    direction 0.366897 -0.87275 0.322015
    length 10.1142
    axis 92.3258 71.2036 138.917 xyz
    dof rx ry rz
  end
  begin
    id 19
    name RightForeArm
    direction 0.702487 -0.694568 0.155197
    length 9.39835
    axis 153.863 41.5092 -176.604 xyz
    dof rx ry rz
  end
  begin
    id 20
    name RightHand
    direction 0.79502 -0.601276 0.0800636
    length 3.66142
    axis 154.247 4.59222 142.9 xyz
    dof rx ry rz
  end
  begin
    id 21
    name LeftUpLegDummy
    direction 0.65628 -0.754516 0.00165102
    length 4.76919
    axis 0 0 0 xyz
  end
  begin
    id 22
    name LeftUpLeg
    direction -0.1277 -0.689368 0.713067
    length 17.9961
    axis -48.3385 -17.8675 0.791927 xyz
    dof rx ry rz
  end
  begin
    id 23
    name LeftLeg
    direction 0.109849 -0.991246 -0.0732378
    length 13.3386
    axis -2.05791 -7.30784 1.72042 xyz
    dof rx ry rz
  end
  begin
    id 24
    name LeftFoot
    direction 0.0448355 -0.272614 0.961078
    length 5.86697
    axis -18.7733 -7.89606 10.2113 xyz
    dof rx ry rz
  end
  begin
    id 25
    name LeftToes
    direction -0.18506 0.293668 0.937823
    length 4.75197
    axis 71.2267 -7.89606 10.2113 xyz
    dof rx ry rz
  end
:hierarchy
  begin
    root RightUpLegDummy SpineDummy LeftUpLegDummy
    RightUpLegDummy RightUpLeg
    RightUpLeg RightLeg
    RightLeg RightFoot
    RightFoot RightToes
    SpineDummy Spine
    Spine Spine1
    Spine1 HEadDummy LeftShoulder1Dummy RightShoulderDummy
    HEadDummy HEad
    LeftShoulder1Dummy LeftShoulder1
    LeftShoulder1 LeftArm
    LeftArm LeftForeArm
    LeftForeArm LeftHand
    RightShoulderDummy RightShoulder
    RightShoulder RightArm
    RightArm RightForeArm
    RightForeArm RightHand
    LeftUpLegDummy LeftUpLeg
    LeftUpLeg LeftLeg
    LeftLeg LeftFoot
    LeftFoot LeftToes
  end

:SAMPLES-PER-SECOND 30
:FULLY-SPECIFIED
:DEGREES
461
root  -23.3152 39.6512 18.2185 -177.684 12.9467 163.707
RightUpLeg  -3.25178 -6.79408 8.92141
RightLeg  -90.291 -12.1009 -0.181598
RightFoot  33.0007 11.6161 -26.0817
RightToes  -1.27222e-014 -6.36111e-015 6.36111e-015
Spine  -30.368 -33.553 -17.6434
Spine1  -7.00055 -21.4776 58.4963
HEad  -21.2395 5.20125 -14.5501
LeftShoulder1  6.36111e-015 -1.33558e-015 6.49777e-015
LeftArm  21.6953 -31.4904 -26.7881
LeftForeArm  -63.6867 -52.7027 50.2423
LeftHand  -2.76423 -6.52372 -10.8442
RightShoulder  -4.77083e-015 -6.36111e-015 -3.18055e-015
RightArm  100.316 -24.9039 -42.0627
RightForeArm  -69.6919 11.3826 -47.2293
RightHand  -2.20399 10.8766 9.55893
LeftUpLeg  54.3058 3.70715 18.0425
LeftLeg  39.2121 -6.00155 -1.266
LeftFoot  -2.47271 5.39224 -19.5567
LeftToes  1.27222e-014 -5.20697e-012 1.80337e-011
462
root  -23.2647 41.3095 19.1427 -174.438 14.3352 165.271
RightUpLeg  -3.13042 4.52465 7.64675
RightLeg  -98.8022 -5.83431 0.578119
RightFoot  47.5642 -2.96177 -11.9616
RightToes  -1.27222e-014 -6.36111e-015 6.36111e-015
Spine  -33.9396 -34.7444 -17.2161
Spine1  -7.84904 -21.9456 60.7936
HEad  -18.6937 5.93493 -12.5501
LeftShoulder1  6.36111e-015 -1.33558e-015 6.49777e-015
LeftArm  29.4674 -32.0906 -38.2204
LeftForeArm  -62.2634 -52.5516 48.4288
LeftHand  -3.12199 -7.72341 -12.3954
RightShoulder  -4.77083e-015 -6.36111e-015 -3.18055e-015
RightArm  98.9932 -29.5973 -40.564
RightForeArm  -70.824 12.6088 -53.7333
RightHand  -2.25685 11.1629 10.4997
LeftUpLeg  53.2638 10.8867 21.0097
LeftLeg  34.8982 -5.97322 -1.06741
LeftFoot  -1.7509 5.77108 -20.4223
LeftToes  1.27222e-014 -5.20697e-012 1.80337e-011
463
root  -23.2924 42.4794 20.029 -171.763 15.7852 166.985
RightUpLeg  -3.49019 12.0515 7.01158
RightLeg  -102.784 -4.96203 0.629239
RightFoot  51.3283 -10.9086 -5.94203
RightToes  -1.27222e-014 -6.36111e-015 6.36111e-015
Spine  -37.5221 -35.2423 -16.1818
Spine1  -7.88042 -22.4984 62.2025
HEad  -17.9115 7.22322 -12.4242
LeftShoulder1  6.36111e-015 -1.33558e-015 6.49777e-015
LeftArm  34.5214 -30.9096 -46.3877
LeftForeArm  -61.7145 -51.4451 45.6351
LeftHand  -3.51168 -9.15893 -13.3033
RightShoulder  -4.77083e-015 -6.36111e-015 -3.18055e-015
RightArm  94.699 -34.4061 -37.1091
RightForeArm  -70.4846 13.8325 -59.4654
RightHand  -2.15817 10.2104 9.998
LeftUpLeg  52.7992 17.1651 23.3285
LeftLeg  27.769 -7.79831 -2.14065
LeftFoot  -1.01299 6.4311 -22.1859
LeftToes  1.27222e-014 -5.20697e-012 1.80337e-011
464
root  -23.4009 43.2302 20.96 -169.547 17.875 169.441
RightUpLeg  -4.50008 11.8572 7.8258
RightLeg  -100.361 -7.86656 -2.85314
RightFoot  50.0455 -7.84311 -8.19627
RightToes  -1.27222e-014 -6.36111e-015 6.36111e-015
Spine  -40.1137 -34.2192 -14.6651
Spine1  -7.96005 -22.4896 62.727
HEad  -18.8933 8.66006 -13.638
LeftShoulder1  6.36111e-015 -1.33558e-015 6.49777e-015
LeftArm  36.9787 -29.0835 -51.8715
LeftForeArm  -62.0843 -49.8819 42.7185
LeftHand  -3.82172 -10.3155 -13.3162
RightShoulder  -4.77083e-015 -6.36111e-015 -3.18055e-015
RightArm  88.2156 -38.1219 -32.302
RightForeArm  -71.1408 13.9593 -61.901
RightHand  -2.09519 9.6615 9.6513
LeftUpLeg  52.9879 22.5987 25.7614
LeftLeg  18.1434 -9.81293 -2.56916
LeftFoot  0.678964 7.49012 -24.4421
LeftToes  1.27222e-014 -5.20697e-012 1.80337e-011
465
root  -23.5885 43.5156 22.042 -167.756 20.1598 172.721
RightUpLeg  -5.5188 9.62018 9.30608
RightLeg  -95.4315 -10.8773 -4.01926
RightFoot  49.2296 -2.52418 -12.7151
RightToes  -1.27222e-014 -6.36111e-015 6.36111e-015
Spine  -40.7285 -32.1637 -12.983
Spine1  -8.59898 -22.081 62.7979
HEad  -20.8691 10.3761 -15.1604
LeftShoulder1  6.36111e-015 -1.33558e-015 6.49777e-015
LeftArm  37.6952 -26.9438 -55.2164
LeftForeArm  -64.2667 -48.3944 41.3273
LeftHand  -4.12285 -11.4299 -13.2696
RightShoulder  -4.77083e-015 -6.36111e-015 -3.18055e-015
RightArm  79.6323 -40.349 -25.4675
RightForeArm  -72.2232 13.397 -61.1367
RightHand  -2.06893 9.29397 9.81737
LeftUpLeg  53.3679 26.9018 27.9121
LeftLeg  7.79579 -10.9753 -2.12514
LeftFoot  3.57789 8.55945 -25.5867
LeftToes  1.27222e-014 -5.20697e-012 1.80337e-011
466
root  -23.7786 43.394 23.2752 -167.057 21.3148 176.043
RightUpLeg  -4.94299 11.5663 9.60942
RightLeg  -91.3239 -11.7272 -2.31949
RightFoot  47.5951 -0.84891 -13.9273
RightToes  -1.27222e-014 -6.36111e-015 6.36111e-015
Spine  -38.9408 -30.6239 -12.0412
Spine1  -9.22088 -21.7902 63.6299
HEad  -23.3735 12.2162 -16.5673
LeftShoulder1  6.36111e-015 -1.33558e-015 6.49777e-015
LeftArm  37.441 -25.2297 -56.8783
LeftForeArm  -67.5056 -46.588 39.5439
LeftHand  -4.23457 -11.8788 -13.5596
RightShoulder  -4.77083e-015 -6.36111e-015 -3.18055e-015
RightArm  69.422 -40.6456 -17.1147
RightForeArm  -72.2183 13.1763 -59.6134
RightHand  -1.71738 6.88039 7.77278
LeftUpLeg  53.1105 29.0371 27.9164
LeftLeg  -1.33028 -12.4796 -1.57936
LeftFoot  6.33588 9.52305 -26.3348
LeftToes  1.27222e-014 -5.20697e-012 1.80337e-011
